{
  "accessors": [
    {
      "bufferView": 2,
      "componentType": 5126,
      "count": 683,
      "max": [
        29.97152328491211,
        58.61414337158203,
        9.144607543945313
      ],
      "min": [
        -29.97152328491211,
        -61.669429779052734,
        -1.0234298706054688
      ],
      "type": "VEC3"
    },
    {
      "bufferView": 2,
      "byteOffset": 8196,
      "componentType": 5126,
      "count": 683,
      "max": [
        1.0,
        1.0,
        1.0
      ],
      "min": [
        -1.0,
        -1.0,
        -1.0
      ],
      "type": "VEC3"
    },
    {
      "bufferView": 3,
      "componentType": 5126,
      "count": 683,
      "max": [
        1.0,
        1.0,
        1.0,
        1.0
      ],
      "min": [
        -1.0,
        -1.0,
        -1.0,
        -1.0
      ],
      "type": "VEC4"
    },
    {
      "bufferView": 1,
      "componentType": 5126,
      "count": 683,
      "max": [
        0.9988841414451599,
        0.9987515211105347
      ],
      "min": [
        0.0003397410036996007,
        0.0009561639744788408
      ],
      "type": "VEC2"
    },
    {
      "bufferView": 0,
      "componentType": 5125,
      "count": 1536,
      "type": "SCALAR"
    },
    {
      "bufferView": 2,
      "byteOffset": 16392,
      "componentType": 5126,
      "count": 4,
      "max": [
        26.183778762817383,
        51.13201141357422,
        7.184992790222168
      ],
      "min": [
        -26.183778762817383,
        -47.95329666137695,
        7.184992790222168
      ],
      "type": "VEC3"
    },
    {
      "bufferView": 2,
      "byteOffset": 16440,
      "componentType": 5126,
      "count": 4,
      "max": [
        0.0,
        0.0,
        1.0
      ],
      "min": [
        0.0,
        0.0,
        1.0
      ],
      "type": "VEC3"
    },
    {
      "bufferView": 1,
      "byteOffset": 5464,
      "componentType": 5126,
      "count": 4,
      "max": [
        0.7640967965126038,
        0.9997333288192749
      ],
      "min": [
        0.23585958778858185,
        0.00024915742687880993
      ],
      "type": "VEC2"
    },
    {
      "bufferView": 0,
      "byteOffset": 6144,
      "componentType": 5125,
      "count": 6,
      "type": "SCALAR"
    },
    {
      "bufferView": 2,
      "byteOffset": 16488,
      "componentType": 5126,
      "count": 27,
      "max": [
        26.183778762817383,
        51.13201141357422,
        7.184992790222168
      ],
      "min": [
        -26.183778762817383,
        -47.95329666137695,
        -2.92555570602417
      ],
      "type": "VEC3"
    },
    {
      "bufferView": 2,
      "byteOffset": 16812,
      "componentType": 5126,
      "count": 27,
      "max": [
        2.2929199872123718e-07,
        2.426597802696051e-07,
        1.0
      ],
      "min": [
        -2.2929187082354474e-07,
        -2.1527986859837256e-07,
        -1.0
      ],
      "type": "VEC3"
    },
    {
      "bufferView": 1,
      "byteOffset": 5496,
      "componentType": 5126,
      "count": 27,
      "max": [
        0.7640967965126038,
        0.9997333288192749
      ],
      "min": [
        0.23585958778858185,
        0.00024915742687880993
      ],
      "type": "VEC2"
    },
    {
      "bufferView": 0,
      "byteOffset": 6168,
      "componentType": 5125,
      "count": 72,
      "type": "SCALAR"
    }
  ],
  "asset": {
    "extras": {
      "author": "Ben (https://sketchfab.com/bbickle)",
      "license": "CC-BY-4.0 (http://creativecommons.org/licenses/by/4.0/)",
      "source": "https://sketchfab.com/3d-models/folio-55-cellphone-9b0d0f4770ce474eadbbd9d655240833",
      "title": "Folio 5.5 Cellphone"
    },
    "generator": "Sketchfab-15.25.0",
    "version": "2.0"
  },
  "bufferViews": [
    {
      "buffer": 0,
      "byteLength": 6456,
      "name": "floatBufferViews",
      "target": 34963
    },
    {
      "buffer": 0,
      "byteLength": 5712,
      "byteOffset": 6456,
      "byteStride": 8,
      "name": "floatBufferViews",
      "target": 34962
    },
    {
      "buffer": 0,
      "byteLength": 17136,
      "byteOffset": 12168,
      "byteStride": 12,
      "name": "floatBufferViews",
      "target": 34962
    },
    {
      "buffer": 0,
      "byteLength": 10928,
      "byteOffset": 29304,
      "byteStride": 16,
      "name": "floatBufferViews",
      "target": 34962
    }
  ],
  "buffers": [
    {
      "byteLength": 40232,
      "uri": "scene.bin"
    }
  ],
  "extensionsUsed": [
    "KHR_materials_emissive_strength",
    "KHR_materials_specular"
  ],
  "images": [
    {
      "uri": "textures/body_baseColor.png"
    },
    {
      "uri": "textures/body_metallicRoughness.png"
    },
    {
      "uri": "textures/body_emissive.png"
    },
    {
      "uri": "textures/body_normal.png"
    },
    {
      "uri": "textures/screen_emissive.png"
    }
  ],
  "materials": [
    {
      "emissiveFactor": [
        1.0,
        1.0,
        1.0
      ],
      "emissiveTexture": {
        "index": 2
      },
      "extensions": {
        "KHR_materials_emissive_strength": {
          "emissiveStrength": 6.6000000000000005
        },
        "KHR_materials_specular": {
          "specularColorFactor": [
            1.0,
            1.0,
            1.0
          ],
          "specularFactor": 1.0
        }
      },
      "name": "body",
      "normalTexture": {
        "index": 3
      },
      "occlusionTexture": {
        "index": 1
      },
      "pbrMetallicRoughness": {
        "baseColorTexture": {
          "index": 0
        },
        "metallicRoughnessTexture": {
          "index": 1
        }
      }
    },
    {
      "emissiveFactor": [
        1.0,
        1.0,
        1.0
      ],
      "emissiveTexture": {
        "index": 4
      },
      "extensions": {
        "KHR_materials_emissive_strength": {
          "emissiveStrength": 10.0
        },
        "KHR_materials_specular": {
          "specularColorFactor": [
            1.0,
            1.0,
            1.0
          ],
          "specularFactor": 0.09
        }
      },
      "name": "screen",
      "pbrMetallicRoughness": {
        "baseColorFactor": [
          0.0,
          0.0,
          0.0,
          1.0
        ],
        "metallicFactor": 0.0,
        "roughnessFactor": 0.2
      }
    },
    {
      "alphaMode": "BLEND",
      "extensions": {
        "KHR_materials_specular": {
          "specularColorFactor": [
            1.0,
            1.0,
            1.0
          ],
          "specularFactor": 1.0
        }
      },
      "name": "glass",
      "pbrMetallicRoughness": {
        "baseColorFactor": [
          0.012917611825508943,
          0.012917611825508943,
          0.012917611825508943,
          0.0
        ],
        "metallicFactor": 0.0,
        "roughnessFactor": 0.2
      }
    }
  ],
  "meshes": [
    {
      "name": "phone_body_0",
      "primitives": [
        {
          "attributes": {
            "NORMAL": 1,
            "POSITION": 0,
            "TANGENT": 2,
            "TEXCOORD_0": 3
          },
          "indices": 4,
          "material": 0,
          "mode": 4
        }
      ]
    },
    {
      "name": "Screen_screen_0",
      "primitives": [
        {
          "attributes": {
            "NORMAL": 6,
            "POSITION": 5,
            "TEXCOORD_0": 7
          },
          "indices": 8,
          "material": 1,
          "mode": 4
        }
      ]
    },
    {
      "name": "glass_glass_0",
      "primitives": [
        {
          "attributes": {
            "NORMAL": 10,
            "POSITION": 9,
            "TEXCOORD_0": 11
          },
          "indices": 12,
          "material": 2,
          "mode": 4
        }
      ]
    }
  ],
  "nodes": [
    {
      "children": [
        1
      ],
      "matrix": [
        1.0,
        7.466230808832639e-17,
        2.091156263670397e-16,
        0.0,
        -1.232595164407831e-32,
        0.9417730569839479,
        -0.3362491428852079,
        0.0,
        -2.220446049250313e-16,
        0.3362491428852079,
        0.9417730569839479,
        0.0,
        0.0,
        0.0,
        0.0,
        1.0
      ],
      "name": "Sketchfab_model"
    },
    {
      "children": [
        2
      ],
      "matrix": [
        1.0,
        0.0,
        0.0,
        0.0,
        0.0,
        0.0,
        1.0,
        0.0,
        0.0,
        -1.0,
        0.0,
        0.0,
        0.0,
        0.0,
        0.0,
        1.0
      ],
      "name": "58d2a03c008744e3b4fd4d61fae14cce.fbx"
    },
    {
      "children": [
        3,
        5,
        7
      ],
      "name": "RootNode"
    },
    {
      "children": [
        4
      ],
      "matrix": [
        0.049185700714588165,
        0.0,
        0.0,
        0.0,
        0.0,
        1.092141948313156e-17,
        -0.049185700714588165,
        0.0,
        0.0,
        0.049185700714588165,
        1.092141948313156e-17,
        0.0,
        0.0,
        0.0,
        0.0,
        1.0
      ],
      "name": "phone"
    },
    {
      "mesh": 0,
      "name": "phone_body_0"
    },
    {
      "children": [
        6
      ],
      "matrix": [
        0.049185700714588165,
        0.0,
        0.0,
        0.0,
        0.0,
        1.092141948313156e-17,
        -0.049185700714588165,
        0.0,
        0.0,
        0.049185700714588165,
        1.092141948313156e-17,
        0.0,
        0.0,
        0.0,
        0.0,
        1.0
      ],
      "name": "Screen"
    },
    {
      "mesh": 1,
      "name": "Screen_screen_0"
    },
    {
      "children": [
        8
      ],
      "matrix": [
        0.049185700714588165,
        0.0,
        0.0,
        0.0,
        0.0,
        1.092141948313156e-17,
        -0.049185700714588165,
        0.0,
        0.0,
        0.049185700714588165,
        1.092141948313156e-17,
        0.0,
        0.0,
        0.09638500213623047,
        3.2120279769287663e-09,
        1.0
      ],
      "name": "glass"
    },
    {
      "mesh": 2,
      "name": "glass_glass_0"
    }
  ],
  "samplers": [
    {
      "magFilter": 9729,
      "minFilter": 9987,
      "wrapS": 10497,
      "wrapT": 10497
    }
  ],
  "scene": 0,
  "scenes": [
    {
      "name": "Sketchfab_Scene",
      "nodes": [
        0
      ]
    }
  ],
  "textures": [
    {
      "sampler": 0,
      "source": 0
    },
    {
      "sampler": 0,
      "source": 1
    },
    {
      "sampler": 0,
      "source": 2
    },
    {
      "sampler": 0,
      "source": 3
    },
    {
      "sampler": 0,
      "source": 4
    }
  ]
}
